<mxfile host="app.diagrams.net" agent="Mozilla/5.0 (Windows NT 10.0; Win64; x64) AppleWebKit/537.36 (KHTML, like Gecko) Chrome/134.0.0.0 Safari/537.36" version="25.0.3">
  <diagram id="C5RBs43oDa-KdzZeNtuy" name="Page-1">
    <mxGraphModel dx="1434" dy="746" grid="1" gridSize="10" guides="1" tooltips="1" connect="1" arrows="1" fold="1" page="1" pageScale="1" pageWidth="827" pageHeight="1169" math="0" shadow="0">
      <root>
        <mxCell id="WIyWlLk6GJQsqaUBKTNV-0" />
        <mxCell id="WIyWlLk6GJQsqaUBKTNV-1" parent="WIyWlLk6GJQsqaUBKTNV-0" />
        <mxCell id="WIyWlLk6GJQsqaUBKTNV-2" value="" style="rounded=0;html=1;jettySize=auto;orthogonalLoop=1;fontSize=11;endArrow=block;endFill=0;endSize=8;strokeWidth=1;shadow=0;labelBackgroundColor=none;edgeStyle=orthogonalEdgeStyle;entryX=0.5;entryY=0;entryDx=0;entryDy=0;" parent="WIyWlLk6GJQsqaUBKTNV-1" source="8BrP3oqFFd7gMSfniL3S-0" target="8BrP3oqFFd7gMSfniL3S-1" edge="1">
          <mxGeometry relative="1" as="geometry">
            <mxPoint x="220" y="120" as="sourcePoint" />
            <mxPoint x="400" y="180" as="targetPoint" />
          </mxGeometry>
        </mxCell>
        <mxCell id="8BrP3oqFFd7gMSfniL3S-5" style="edgeStyle=orthogonalEdgeStyle;rounded=0;orthogonalLoop=1;jettySize=auto;html=1;entryX=0.5;entryY=0;entryDx=0;entryDy=0;" edge="1" parent="WIyWlLk6GJQsqaUBKTNV-1" source="WIyWlLk6GJQsqaUBKTNV-6" target="8BrP3oqFFd7gMSfniL3S-3">
          <mxGeometry relative="1" as="geometry" />
        </mxCell>
        <mxCell id="8BrP3oqFFd7gMSfniL3S-6" value="Yes" style="edgeLabel;html=1;align=center;verticalAlign=middle;resizable=0;points=[];" vertex="1" connectable="0" parent="8BrP3oqFFd7gMSfniL3S-5">
          <mxGeometry x="-0.1455" relative="1" as="geometry">
            <mxPoint as="offset" />
          </mxGeometry>
        </mxCell>
        <mxCell id="8BrP3oqFFd7gMSfniL3S-8" style="edgeStyle=orthogonalEdgeStyle;rounded=0;orthogonalLoop=1;jettySize=auto;html=1;entryX=0.5;entryY=0;entryDx=0;entryDy=0;" edge="1" parent="WIyWlLk6GJQsqaUBKTNV-1" source="WIyWlLk6GJQsqaUBKTNV-6" target="8BrP3oqFFd7gMSfniL3S-7">
          <mxGeometry relative="1" as="geometry" />
        </mxCell>
        <mxCell id="8BrP3oqFFd7gMSfniL3S-9" value="No" style="edgeLabel;html=1;align=center;verticalAlign=middle;resizable=0;points=[];" vertex="1" connectable="0" parent="8BrP3oqFFd7gMSfniL3S-8">
          <mxGeometry x="-0.0207" y="-3" relative="1" as="geometry">
            <mxPoint as="offset" />
          </mxGeometry>
        </mxCell>
        <mxCell id="WIyWlLk6GJQsqaUBKTNV-6" value="Has mobile App install?" style="rhombus;whiteSpace=wrap;html=1;shadow=0;fontFamily=Helvetica;fontSize=12;align=center;strokeWidth=1;spacing=6;spacingTop=-4;" parent="WIyWlLk6GJQsqaUBKTNV-1" vertex="1">
          <mxGeometry x="190" y="160" width="130" height="110" as="geometry" />
        </mxCell>
        <mxCell id="8BrP3oqFFd7gMSfniL3S-4" style="edgeStyle=orthogonalEdgeStyle;rounded=0;orthogonalLoop=1;jettySize=auto;html=1;" edge="1" parent="WIyWlLk6GJQsqaUBKTNV-1" source="8BrP3oqFFd7gMSfniL3S-0" target="WIyWlLk6GJQsqaUBKTNV-6">
          <mxGeometry relative="1" as="geometry" />
        </mxCell>
        <mxCell id="8BrP3oqFFd7gMSfniL3S-0" value="User" style="shape=umlActor;verticalLabelPosition=bottom;verticalAlign=top;html=1;outlineConnect=0;" vertex="1" parent="WIyWlLk6GJQsqaUBKTNV-1">
          <mxGeometry x="380" y="40" width="30" height="60" as="geometry" />
        </mxCell>
        <mxCell id="8BrP3oqFFd7gMSfniL3S-13" style="edgeStyle=orthogonalEdgeStyle;rounded=0;orthogonalLoop=1;jettySize=auto;html=1;entryX=0.5;entryY=0;entryDx=0;entryDy=0;" edge="1" parent="WIyWlLk6GJQsqaUBKTNV-1" source="8BrP3oqFFd7gMSfniL3S-1" target="8BrP3oqFFd7gMSfniL3S-11">
          <mxGeometry relative="1" as="geometry" />
        </mxCell>
        <mxCell id="8BrP3oqFFd7gMSfniL3S-1" value="Visit web app on Computer" style="rounded=1;whiteSpace=wrap;html=1;" vertex="1" parent="WIyWlLk6GJQsqaUBKTNV-1">
          <mxGeometry x="335" y="200" width="120" height="60" as="geometry" />
        </mxCell>
        <mxCell id="8BrP3oqFFd7gMSfniL3S-12" style="edgeStyle=orthogonalEdgeStyle;rounded=0;orthogonalLoop=1;jettySize=auto;html=1;entryX=0;entryY=0.5;entryDx=0;entryDy=0;" edge="1" parent="WIyWlLk6GJQsqaUBKTNV-1" source="8BrP3oqFFd7gMSfniL3S-3" target="8BrP3oqFFd7gMSfniL3S-11">
          <mxGeometry relative="1" as="geometry" />
        </mxCell>
        <mxCell id="8BrP3oqFFd7gMSfniL3S-3" value="Open app on mobile device" style="rounded=1;whiteSpace=wrap;html=1;" vertex="1" parent="WIyWlLk6GJQsqaUBKTNV-1">
          <mxGeometry x="195" y="380" width="120" height="60" as="geometry" />
        </mxCell>
        <mxCell id="8BrP3oqFFd7gMSfniL3S-10" style="edgeStyle=orthogonalEdgeStyle;rounded=0;orthogonalLoop=1;jettySize=auto;html=1;entryX=0;entryY=0.5;entryDx=0;entryDy=0;exitX=0.5;exitY=1;exitDx=0;exitDy=0;" edge="1" parent="WIyWlLk6GJQsqaUBKTNV-1" source="8BrP3oqFFd7gMSfniL3S-7" target="8BrP3oqFFd7gMSfniL3S-3">
          <mxGeometry relative="1" as="geometry" />
        </mxCell>
        <mxCell id="8BrP3oqFFd7gMSfniL3S-7" value="Download From App Store" style="rounded=1;whiteSpace=wrap;html=1;" vertex="1" parent="WIyWlLk6GJQsqaUBKTNV-1">
          <mxGeometry x="50" y="280" width="120" height="60" as="geometry" />
        </mxCell>
        <mxCell id="8BrP3oqFFd7gMSfniL3S-15" style="edgeStyle=orthogonalEdgeStyle;rounded=0;orthogonalLoop=1;jettySize=auto;html=1;entryX=0.5;entryY=0;entryDx=0;entryDy=0;" edge="1" parent="WIyWlLk6GJQsqaUBKTNV-1" source="8BrP3oqFFd7gMSfniL3S-11" target="8BrP3oqFFd7gMSfniL3S-14">
          <mxGeometry relative="1" as="geometry" />
        </mxCell>
        <mxCell id="8BrP3oqFFd7gMSfniL3S-16" value="Yes" style="edgeLabel;html=1;align=center;verticalAlign=middle;resizable=0;points=[];" vertex="1" connectable="0" parent="8BrP3oqFFd7gMSfniL3S-15">
          <mxGeometry x="-0.225" y="1" relative="1" as="geometry">
            <mxPoint as="offset" />
          </mxGeometry>
        </mxCell>
        <mxCell id="8BrP3oqFFd7gMSfniL3S-18" style="edgeStyle=orthogonalEdgeStyle;rounded=0;orthogonalLoop=1;jettySize=auto;html=1;entryX=0;entryY=0.5;entryDx=0;entryDy=0;" edge="1" parent="WIyWlLk6GJQsqaUBKTNV-1" source="8BrP3oqFFd7gMSfniL3S-11" target="8BrP3oqFFd7gMSfniL3S-17">
          <mxGeometry relative="1" as="geometry" />
        </mxCell>
        <mxCell id="8BrP3oqFFd7gMSfniL3S-19" value="No" style="edgeLabel;html=1;align=center;verticalAlign=middle;resizable=0;points=[];" vertex="1" connectable="0" parent="8BrP3oqFFd7gMSfniL3S-18">
          <mxGeometry x="-0.3077" y="1" relative="1" as="geometry">
            <mxPoint as="offset" />
          </mxGeometry>
        </mxCell>
        <mxCell id="8BrP3oqFFd7gMSfniL3S-11" value="Has an account?" style="rhombus;whiteSpace=wrap;html=1;" vertex="1" parent="WIyWlLk6GJQsqaUBKTNV-1">
          <mxGeometry x="342" y="360" width="106" height="100" as="geometry" />
        </mxCell>
        <mxCell id="8BrP3oqFFd7gMSfniL3S-22" style="edgeStyle=orthogonalEdgeStyle;rounded=0;orthogonalLoop=1;jettySize=auto;html=1;" edge="1" parent="WIyWlLk6GJQsqaUBKTNV-1" source="8BrP3oqFFd7gMSfniL3S-14" target="8BrP3oqFFd7gMSfniL3S-21">
          <mxGeometry relative="1" as="geometry" />
        </mxCell>
        <mxCell id="8BrP3oqFFd7gMSfniL3S-14" value="Sign-in" style="rounded=1;whiteSpace=wrap;html=1;" vertex="1" parent="WIyWlLk6GJQsqaUBKTNV-1">
          <mxGeometry x="335" y="540" width="120" height="60" as="geometry" />
        </mxCell>
        <mxCell id="8BrP3oqFFd7gMSfniL3S-20" style="edgeStyle=orthogonalEdgeStyle;rounded=0;orthogonalLoop=1;jettySize=auto;html=1;entryX=1;entryY=0.5;entryDx=0;entryDy=0;exitX=0.5;exitY=1;exitDx=0;exitDy=0;" edge="1" parent="WIyWlLk6GJQsqaUBKTNV-1" source="8BrP3oqFFd7gMSfniL3S-17" target="8BrP3oqFFd7gMSfniL3S-14">
          <mxGeometry relative="1" as="geometry" />
        </mxCell>
        <mxCell id="8BrP3oqFFd7gMSfniL3S-17" value="Create an Account" style="rounded=1;whiteSpace=wrap;html=1;" vertex="1" parent="WIyWlLk6GJQsqaUBKTNV-1">
          <mxGeometry x="500" y="380" width="120" height="60" as="geometry" />
        </mxCell>
        <mxCell id="8BrP3oqFFd7gMSfniL3S-24" style="edgeStyle=orthogonalEdgeStyle;rounded=0;orthogonalLoop=1;jettySize=auto;html=1;" edge="1" parent="WIyWlLk6GJQsqaUBKTNV-1" source="8BrP3oqFFd7gMSfniL3S-21" target="8BrP3oqFFd7gMSfniL3S-23">
          <mxGeometry relative="1" as="geometry" />
        </mxCell>
        <mxCell id="8BrP3oqFFd7gMSfniL3S-21" value="Visit Home page and start swiping" style="rounded=1;whiteSpace=wrap;html=1;" vertex="1" parent="WIyWlLk6GJQsqaUBKTNV-1">
          <mxGeometry x="335" y="660" width="120" height="60" as="geometry" />
        </mxCell>
        <mxCell id="8BrP3oqFFd7gMSfniL3S-26" style="edgeStyle=orthogonalEdgeStyle;rounded=0;orthogonalLoop=1;jettySize=auto;html=1;" edge="1" parent="WIyWlLk6GJQsqaUBKTNV-1" source="8BrP3oqFFd7gMSfniL3S-23" target="8BrP3oqFFd7gMSfniL3S-25">
          <mxGeometry relative="1" as="geometry" />
        </mxCell>
        <mxCell id="8BrP3oqFFd7gMSfniL3S-27" value="Liked/Disliked" style="edgeLabel;html=1;align=center;verticalAlign=middle;resizable=0;points=[];" vertex="1" connectable="0" parent="8BrP3oqFFd7gMSfniL3S-26">
          <mxGeometry x="-0.1077" y="3" relative="1" as="geometry">
            <mxPoint x="1" as="offset" />
          </mxGeometry>
        </mxCell>
        <mxCell id="8BrP3oqFFd7gMSfniL3S-28" style="edgeStyle=orthogonalEdgeStyle;rounded=0;orthogonalLoop=1;jettySize=auto;html=1;entryX=1;entryY=0.5;entryDx=0;entryDy=0;" edge="1" parent="WIyWlLk6GJQsqaUBKTNV-1" source="8BrP3oqFFd7gMSfniL3S-23" target="8BrP3oqFFd7gMSfniL3S-29">
          <mxGeometry relative="1" as="geometry">
            <mxPoint x="230" y="810" as="targetPoint" />
          </mxGeometry>
        </mxCell>
        <mxCell id="8BrP3oqFFd7gMSfniL3S-30" value="No Seen" style="edgeLabel;html=1;align=center;verticalAlign=middle;resizable=0;points=[];" vertex="1" connectable="0" parent="8BrP3oqFFd7gMSfniL3S-28">
          <mxGeometry x="-0.2279" y="1" relative="1" as="geometry">
            <mxPoint x="1" as="offset" />
          </mxGeometry>
        </mxCell>
        <mxCell id="8BrP3oqFFd7gMSfniL3S-33" style="edgeStyle=orthogonalEdgeStyle;rounded=0;orthogonalLoop=1;jettySize=auto;html=1;entryX=0.5;entryY=0;entryDx=0;entryDy=0;" edge="1" parent="WIyWlLk6GJQsqaUBKTNV-1" source="8BrP3oqFFd7gMSfniL3S-23" target="8BrP3oqFFd7gMSfniL3S-34">
          <mxGeometry relative="1" as="geometry">
            <mxPoint x="395" y="920" as="targetPoint" />
          </mxGeometry>
        </mxCell>
        <mxCell id="8BrP3oqFFd7gMSfniL3S-35" value="Watch Later" style="edgeLabel;html=1;align=center;verticalAlign=middle;resizable=0;points=[];" vertex="1" connectable="0" parent="8BrP3oqFFd7gMSfniL3S-33">
          <mxGeometry x="-0.2" relative="1" as="geometry">
            <mxPoint as="offset" />
          </mxGeometry>
        </mxCell>
        <mxCell id="8BrP3oqFFd7gMSfniL3S-23" value="Interaction with movie?" style="rhombus;whiteSpace=wrap;html=1;" vertex="1" parent="WIyWlLk6GJQsqaUBKTNV-1">
          <mxGeometry x="337.5" y="760" width="115" height="100" as="geometry" />
        </mxCell>
        <mxCell id="8BrP3oqFFd7gMSfniL3S-25" value="Influence ML recommender, never show again" style="rounded=1;whiteSpace=wrap;html=1;" vertex="1" parent="WIyWlLk6GJQsqaUBKTNV-1">
          <mxGeometry x="580" y="780" width="120" height="60" as="geometry" />
        </mxCell>
        <mxCell id="8BrP3oqFFd7gMSfniL3S-31" style="edgeStyle=orthogonalEdgeStyle;rounded=0;orthogonalLoop=1;jettySize=auto;html=1;entryX=0.5;entryY=0;entryDx=0;entryDy=0;exitX=0.5;exitY=0;exitDx=0;exitDy=0;" edge="1" parent="WIyWlLk6GJQsqaUBKTNV-1" source="8BrP3oqFFd7gMSfniL3S-29" target="8BrP3oqFFd7gMSfniL3S-23">
          <mxGeometry relative="1" as="geometry">
            <Array as="points">
              <mxPoint x="170" y="760" />
            </Array>
          </mxGeometry>
        </mxCell>
        <mxCell id="8BrP3oqFFd7gMSfniL3S-29" value="Place at back of queue" style="rounded=1;whiteSpace=wrap;html=1;" vertex="1" parent="WIyWlLk6GJQsqaUBKTNV-1">
          <mxGeometry x="110" y="780" width="120" height="60" as="geometry" />
        </mxCell>
        <mxCell id="8BrP3oqFFd7gMSfniL3S-32" style="edgeStyle=orthogonalEdgeStyle;rounded=0;orthogonalLoop=1;jettySize=auto;html=1;exitX=0.5;exitY=0;exitDx=0;exitDy=0;entryX=0.5;entryY=0;entryDx=0;entryDy=0;" edge="1" parent="WIyWlLk6GJQsqaUBKTNV-1" source="8BrP3oqFFd7gMSfniL3S-25" target="8BrP3oqFFd7gMSfniL3S-23">
          <mxGeometry relative="1" as="geometry">
            <mxPoint x="395" y="740" as="targetPoint" />
          </mxGeometry>
        </mxCell>
        <mxCell id="8BrP3oqFFd7gMSfniL3S-36" style="edgeStyle=orthogonalEdgeStyle;rounded=0;orthogonalLoop=1;jettySize=auto;html=1;" edge="1" parent="WIyWlLk6GJQsqaUBKTNV-1" source="8BrP3oqFFd7gMSfniL3S-34">
          <mxGeometry relative="1" as="geometry">
            <mxPoint x="395" y="1050" as="targetPoint" />
          </mxGeometry>
        </mxCell>
        <mxCell id="8BrP3oqFFd7gMSfniL3S-34" value="Send request to Radarr" style="rounded=1;whiteSpace=wrap;html=1;" vertex="1" parent="WIyWlLk6GJQsqaUBKTNV-1">
          <mxGeometry x="335" y="930" width="120" height="60" as="geometry" />
        </mxCell>
        <mxCell id="8BrP3oqFFd7gMSfniL3S-39" style="edgeStyle=orthogonalEdgeStyle;rounded=0;orthogonalLoop=1;jettySize=auto;html=1;" edge="1" parent="WIyWlLk6GJQsqaUBKTNV-1" source="8BrP3oqFFd7gMSfniL3S-37" target="8BrP3oqFFd7gMSfniL3S-38">
          <mxGeometry relative="1" as="geometry" />
        </mxCell>
        <mxCell id="8BrP3oqFFd7gMSfniL3S-37" value="Scrape for film download" style="rounded=1;whiteSpace=wrap;html=1;" vertex="1" parent="WIyWlLk6GJQsqaUBKTNV-1">
          <mxGeometry x="335" y="1050" width="120" height="60" as="geometry" />
        </mxCell>
        <mxCell id="8BrP3oqFFd7gMSfniL3S-41" style="edgeStyle=orthogonalEdgeStyle;rounded=0;orthogonalLoop=1;jettySize=auto;html=1;" edge="1" parent="WIyWlLk6GJQsqaUBKTNV-1" source="8BrP3oqFFd7gMSfniL3S-38" target="8BrP3oqFFd7gMSfniL3S-40">
          <mxGeometry relative="1" as="geometry" />
        </mxCell>
        <mxCell id="8BrP3oqFFd7gMSfniL3S-38" value="Trigger download to plex media server" style="rounded=1;whiteSpace=wrap;html=1;" vertex="1" parent="WIyWlLk6GJQsqaUBKTNV-1">
          <mxGeometry x="500" y="1050" width="120" height="60" as="geometry" />
        </mxCell>
        <mxCell id="8BrP3oqFFd7gMSfniL3S-40" value="Watch Movie" style="shape=umlActor;verticalLabelPosition=bottom;verticalAlign=top;html=1;outlineConnect=0;" vertex="1" parent="WIyWlLk6GJQsqaUBKTNV-1">
          <mxGeometry x="730" y="1050" width="30" height="60" as="geometry" />
        </mxCell>
      </root>
    </mxGraphModel>
  </diagram>
</mxfile>
